<?xml version="1.0" encoding="UTF-8"?>
<svg version="1.1" xmlns="http://www.w3.org/2000/svg" width="805" height="556">
<path d="M0 0 C134.95384615 0 134.95384615 0 155.15625 19.03125 C172.16871886 37.05938864 172.23185845 63.1558316 172.578125 86.48193359 C172.6237947 89.544182 172.68175026 92.60598027 172.7421875 95.66796875 C173.09934864 115.11054357 173.05698292 134.55509047 173 154 C172.99771645 154.83148811 172.99543289 155.66297623 172.99308014 156.51966095 C172.96423562 166.63930359 172.91110448 176.75841435 172.81608772 186.87766457 C172.77632977 191.14356082 172.7441706 195.40923223 172.72900391 199.67529297 C172.51004527 257.20629342 172.51004527 257.20629342 158.50390625 271.70703125 C146.91957951 282.31545527 131.72174798 284.49374386 116.5625 285.1875 C115.15354771 285.26123669 113.74461276 285.33530551 112.33569336 285.40966797 C99.91966597 286.03104327 87.49012616 286.34400363 75.0625 286.625 C74.18506134 286.64573578 73.30762268 286.66647156 72.40359497 286.68783569 C48.27364717 287.23231931 24.1329363 287 0 287 C0 192.29 0 97.58 0 0 Z M74 51 C74 111.72 74 172.44 74 235 C86.11392398 236.1147408 86.11392398 236.1147408 92 232 C96.14317439 224.59571175 95.42327725 216.38087668 95.38818359 208.13232422 C95.39225325 206.52513269 95.39759734 204.91794397 95.40411377 203.3107605 C95.41774416 198.96379225 95.41250706 194.61703855 95.40297651 190.27006674 C95.39536032 185.71382174 95.40243072 181.15759463 95.40713501 176.60134888 C95.41258575 168.95343744 95.4054177 161.30561305 95.39111328 153.65771484 C95.37477639 144.82120927 95.38008554 135.98491126 95.3965925 127.14841068 C95.41021287 119.55244671 95.41212468 111.95654517 95.40427649 104.36057293 C95.39960451 99.82767721 95.3989623 95.29487902 95.40888596 90.76198959 C95.41756178 86.50193957 95.41152254 82.24215696 95.39420319 77.98213577 C95.39024213 76.42047316 95.39136588 74.85878798 95.39799118 73.2971344 C95.40621189 71.16237691 95.39588007 69.02847176 95.38095093 66.89376831 C95.37925431 65.10356168 95.37925431 65.10356168 95.37752342 63.27718925 C94.85697164 58.75840551 93.39517391 55.36029456 90.125 52.171875 C87.65360075 50.808971 85.80615992 50.47243951 83 50.25 C82.154375 50.17265625 81.30875 50.0953125 80.4375 50.015625 C77.70695834 49.89706294 77.70695834 49.89706294 74 51 Z " fill="#FDFDFD" transform="translate(610,220)"/>
<path d="M0 0 C0.74507812 0.53109375 1.49015625 1.0621875 2.2578125 1.609375 C18.27239135 14.29543354 25.38880394 36.19645134 27.6875 55.71484375 C28.1357029 60.99014091 28.21337139 66.27053865 28.25 71.5625 C28.2593457 72.50287109 28.26869141 73.44324219 28.27832031 74.41210938 C28.27413086 75.30865234 28.26994141 76.20519531 28.265625 77.12890625 C28.26336914 77.92369385 28.26111328 78.71848145 28.25878906 79.53735352 C27.65421071 85.29054392 25.25950272 89.44949462 22.0078125 94.140625 C21.21213794 95.30592019 20.41656839 96.47128708 19.62109375 97.63671875 C18.37785662 99.43977896 17.13151852 101.24061282 15.88232422 103.03955078 C6.23177102 116.30732596 6.23177102 116.30732596 4 132 C4.84426776 134.44634212 5.87349383 136.65686717 7 139 C7.33 139.99 7.66 140.98 8 142 C9.84439192 143.12563208 9.84439192 143.12563208 12 144 C12.61359375 144.31839844 13.2271875 144.63679687 13.859375 144.96484375 C18.47526657 147.3395483 23.11128688 149.25403103 28 151 C28 153.64 28 156.28 28 159 C11.53125 159.265625 11.53125 159.265625 7 157 C9.10061769 161.7040428 10.64589936 165.04543171 15 168 C15 168.99 15 169.98 15 171 C10.53908968 170.01983231 6.0828773 169.02672461 1.640625 167.96484375 C-7.27789517 165.86189154 -15.8134502 164.32461307 -25 164 C-25 164.66 -25 165.32 -25 166 C-22.69 167.32 -20.38 168.64 -18 170 C-18.875 173.875 -18.875 173.875 -20 175 C-17.69 175.66 -15.38 176.32 -13 177 C-12.01 183.435 -12.01 183.435 -11 190 C-8.69 190 -6.38 190 -4 190 C-4 188.68 -4 187.36 -4 186 C0.06939446 186.63848367 3.41164059 187.95435811 7.140625 189.6875 C8.29304687 190.22117187 9.44546875 190.75484375 10.6328125 191.3046875 C12.42332031 192.14386719 12.42332031 192.14386719 14.25 193 C15.47114773 193.56555012 16.6925 194.13065881 17.9140625 194.6953125 C26.85379464 198.85379464 26.85379464 198.85379464 28 200 C28.75211284 204.14643078 28.88183038 207.86904458 28 212 C25.18083439 215.21934378 21.74376653 216.99566038 18 219 C7.52868242 225.13835858 -0.49397306 231.20727513 -4.32421875 243.13671875 C-5.40716711 247.72516469 -5.81805496 252.29672082 -6 257 C-8.79104343 257.6693723 -11.58277023 258.33561092 -14.375 259 C-15.56609375 259.28617187 -15.56609375 259.28617187 -16.78125 259.578125 C-17.92207031 259.84882812 -17.92207031 259.84882812 -19.0859375 260.125 C-19.7876709 260.29257812 -20.4894043 260.46015625 -21.21240234 260.6328125 C-23 261 -23 261 -25 261 C-23.42430149 265.94479071 -22.24216807 269.25001173 -17.6875 272 C-13.67135782 273.18077588 -9.72636524 273.0998836 -5.5625 273.1875 C-0.08465491 273.44266226 2.84945736 273.96499945 6.875 277.75 C7.47054687 278.42546875 8.06609375 279.1009375 8.6796875 279.796875 C10.78960204 282.06401833 10.78960204 282.06401833 13.1579895 282.89361572 C15.84371221 284.00956586 17.82281001 285.0593937 20 287 C21.27221529 290.93682379 21.17039951 294.70479067 21.0625 298.8125 C21.06958984 299.88693359 21.07667969 300.96136719 21.08398438 302.06835938 C21.09574688 304.71492311 21.06643318 307.35443379 21 310 C11.02008623 310.06978075 1.04023135 310.12295304 -8.93987751 310.15543652 C-13.57499679 310.17103387 -18.20994808 310.19216265 -22.8449707 310.22631836 C-27.32538166 310.25912481 -31.80563191 310.27689751 -36.28615379 310.28463173 C-37.98802403 310.29013729 -39.68988634 310.30088739 -41.39168739 310.31719017 C-54.50567482 310.43772182 -65.94292488 310.16184455 -76.25 301 C-80.44586553 293.80708766 -80.31261205 284.17629876 -81 276 C-81.99257812 275.85304688 -82.98515625 275.70609375 -84.0078125 275.5546875 C-102.40392471 272.61176546 -117.69656756 265.39605453 -129 250 C-140.21725348 231.51230445 -142.62082875 209.05087774 -144.09838867 187.890625 C-144.22545968 186.07705757 -144.22545968 186.07705757 -144.35509777 184.22685242 C-145.19100365 171.42087135 -145.30938488 158.64135235 -145.30078125 145.8125 C-145.30468685 143.32210217 -145.30902518 140.83170498 -145.31376648 138.34130859 C-145.32113887 133.17852596 -145.32100116 128.01581184 -145.31567383 122.85302734 C-145.30985135 116.29334326 -145.32692139 109.733939 -145.3500185 103.17430115 C-145.36485381 98.05225026 -145.36561496 92.93026559 -145.36250877 87.80819702 C-145.36301575 85.39089397 -145.36813362 82.97358658 -145.37832069 80.55630493 C-145.47825606 53.57058528 -144.26099617 24.08980817 -124.25 3.6875 C-93.41552138 -26.31582175 -33.94946224 -24.42822496 0 0 Z M-66 37 C-69.14564269 41.11994765 -69.37655578 44.28631458 -69.38095093 49.40112305 C-69.3856309 50.13690677 -69.39031087 50.87269049 -69.39513266 51.63077068 C-69.40707938 54.09127116 -69.39762694 56.55121433 -69.38818359 59.01171875 C-69.39224945 60.77772344 -69.3975914 62.54372558 -69.40411377 64.3097229 C-69.41779155 69.10306153 -69.4124868 73.89620647 -69.40297651 78.68954849 C-69.39538234 83.70539116 -69.40242486 88.72121723 -69.40713501 93.73706055 C-69.41259326 102.16034931 -69.40539911 110.58355916 -69.39111328 119.00683594 C-69.37478665 128.74590344 -69.3800751 138.48478254 -69.3965925 148.22384548 C-69.41020537 156.58490582 -69.41212799 164.94590943 -69.40427649 173.30697727 C-69.39959889 178.30098624 -69.39897755 183.29490663 -69.40888596 188.28890991 C-69.41755042 192.98391924 -69.41154319 197.6786856 -69.39420319 202.37366867 C-69.39023557 204.09700492 -69.3913771 205.82036161 -69.39799118 207.54368973 C-69.40618602 209.89569509 -69.3959106 212.24692127 -69.38095093 214.59887695 C-69.37981985 215.91515579 -69.37868877 217.23143463 -69.37752342 218.58760071 C-68.9724985 222.24858352 -68.23003417 224.10144876 -66 227 C-62.33091443 229.44605705 -59.26381231 229.83946402 -55 229 C-52.30894802 226.82425584 -50.54467072 225.08934144 -49 222 C-48.89657831 219.65722503 -48.86043402 217.31141393 -48.85282898 214.96636963 C-48.84915229 214.23385475 -48.8454756 213.50133987 -48.8416875 212.74662757 C-48.83062876 210.27932024 -48.82680312 207.81205499 -48.82299805 205.34472656 C-48.81673503 203.58078883 -48.81008838 201.81685243 -48.80308533 200.05291748 C-48.78566019 195.25113789 -48.77511937 190.44936827 -48.7668798 185.64756489 C-48.76173269 182.64874663 -48.75565682 179.64993148 -48.74936867 176.65111542 C-48.73031209 167.27199312 -48.71608213 157.89287872 -48.7077567 148.51374078 C-48.69798253 137.68075152 -48.67166025 126.8479665 -48.63125581 116.01504922 C-48.60111189 107.64640511 -48.58628945 99.27781959 -48.58297569 90.90912223 C-48.58062316 85.90882805 -48.57163656 80.90875195 -48.54651451 75.90851593 C-48.52325905 71.20367717 -48.51899037 66.49920045 -48.52927589 61.79431915 C-48.52977199 60.06816403 -48.52342993 58.34199125 -48.50971985 56.6158905 C-48.49203577 54.25734754 -48.4990889 51.90010873 -48.51225281 49.54156494 C-48.50986445 48.22231144 -48.5074761 46.90305794 -48.50501537 45.54382706 C-49.08798528 41.3700721 -50.32351147 39.22377206 -53 36 C-58.30816486 33.54251627 -61.20620424 33.62255299 -66 37 Z " fill="#FEFEFE" transform="translate(176,231)"/>
<path d="M0 0 C37.29 0 74.58 0 113 0 C119.38288754 45.05108391 119.38288754 45.05108391 121.43164062 59.59765625 C121.57300351 60.6013582 121.7143664 61.60506016 121.86001301 62.63917732 C127.27843948 101.12713695 132.58418267 139.63078473 137.88963652 178.13444805 C139.12140855 187.07172702 140.35683878 196.00849796 141.59288526 204.94518661 C142.80569652 213.71515457 144.01593318 222.48547531 145.22415423 231.25607681 C145.93666967 236.427939 146.6502259 241.59965206 147.36649323 246.77099609 C148.0295211 251.55849768 148.68935836 256.34642797 149.34668159 261.13471603 C149.58739154 262.88408842 149.82925778 264.63330215 150.0723629 266.38234329 C150.40327394 268.76440656 150.73002457 271.1470047 151.0557251 273.52978516 C151.15259526 274.21986664 151.24946543 274.90994812 151.34927106 275.62094116 C151.82107216 279.10716093 152.10212833 282.48173136 152 286 C144.83500982 286.1328739 137.66998017 286.26337823 130.50489712 286.39115143 C127.17503657 286.45060024 123.84519966 286.51098696 120.51538086 286.57275391 C104.0081251 286.87838607 87.51017028 287.07326547 71 287 C70.85454976 282.16610065 70.71230786 277.33212005 70.57275391 272.49804688 C70.52508488 270.86130364 70.47661193 269.22458357 70.42724609 267.58789062 C70.10012703 256.71952655 69.95012103 245.8736152 70 235 C61.09 235 52.18 235 43 235 C43.020625 237.825625 43.04125 240.65125 43.0625 243.5625 C43.11139607 258.0500489 42.52889122 272.52441602 42 287 C24.18184692 287.07906977 6.37729156 286.83045801 -11.4375 286.5 C-14.12694565 286.45140292 -16.81640231 286.40342919 -19.50585938 286.35546875 C-26.00394661 286.23912523 -32.50198558 286.12033405 -39 286 C-37.52777025 270.71918391 -35.49780184 255.53589203 -33.37646484 240.33325195 C-33.01137526 237.69997762 -32.64653354 235.06667003 -32.28199768 232.43331909 C-31.50212337 226.80320227 -30.72000678 221.1734008 -29.93629074 215.54381752 C-28.80322381 207.40475488 -27.67365726 199.26520937 -26.54489775 191.12554839 C-24.71270559 177.91400799 -22.87775004 164.70285298 -21.04101562 151.49194336 C-19.25862104 138.67183471 -17.47755344 125.85154283 -15.69824219 113.03100586 C-15.5882488 112.23846979 -15.47825541 111.44593371 -15.36492889 110.6293814 C-14.81303805 106.6527794 -14.26117301 102.67617383 -13.70932078 98.69956648 C-9.14354432 65.79915491 -4.57274956 32.89944332 0 0 Z M56 77 C52.04 111.98 48.08 146.96 44 183 C52.25 183 60.5 183 69 183 C67.87957977 172.87054381 66.7581506 162.7412006 65.63507366 152.61203861 C65.11329712 147.9057315 64.59191736 143.19938122 64.0715332 138.49291992 C61.80364652 117.98424532 59.52930376 97.47847053 57 77 C56.67 77 56.34 77 56 77 Z " fill="#FDFDFD" transform="translate(447,220)"/>
<path d="M0 0 C24.75 0 49.5 0 75 0 C75 64.35 75 128.7 75 195 C71.29139291 193.14569645 70.23955642 192.36280054 67.8125 189.3125 C57.53813093 177.33293102 39.57672092 167.22599152 23.6640625 165.7890625 C22.65472656 165.73878906 22.65472656 165.73878906 21.625 165.6875 C17.57913343 164.92018048 17.21528526 164.41136501 14.6875 161.4375 C10.49918245 156.74989327 10.49918245 156.74989327 0 158 C0 105.86 0 53.72 0 0 Z " fill="#FEFEFE" transform="translate(324,220)"/>
<path d="M0 0 C-0.51192213 3.85254222 -1.2441447 5.70939533 -4.125 8.3125 C-8.02884867 11.99281542 -11.51456487 15.9257014 -15 20 C-15.58523437 20.680625 -16.17046875 21.36125 -16.7734375 22.0625 C-18.18500084 23.70601037 -19.59290162 25.35266531 -21 27 C-25.4951153 26.38469905 -29.15464795 24.58130034 -33.125 22.5 C-39.18015501 19.36541872 -44.02377253 17.24913403 -51 18 C-55.16636339 19.75913121 -57.24086879 21.83363661 -59 26 C-59.50430237 30.5387213 -59.48776503 32.91361426 -57.625 37.0625 C-50.68524044 44.82842141 -41.82878836 48.55887565 -32.47338867 52.66333008 C-15.43033607 60.16699191 -4.30491124 68.54213176 3 86 C6.23955003 96.99327288 5.26210485 111.91798399 0 122 C-2.40930965 125.90924863 -5.05840838 129.47680091 -8 133 C-8.53367187 133.64710938 -9.06734375 134.29421875 -9.6171875 134.9609375 C-19.26692542 145.57084835 -32.91290628 151.53150708 -47.0625 152.375 C-70.64095264 153.19070086 -86.5994764 144.17918017 -104 129 C-103.46568096 124.8876517 -101.30189725 122.87343863 -98.5 119.9375 C-94.08493435 115.21838392 -89.95199601 110.3592981 -85.91015625 105.3125 C-85.27980469 104.549375 -84.64945313 103.78625 -84 103 C-83.50371094 102.38125 -83.00742188 101.7625 -82.49609375 101.125 C-81 100 -81 100 -79.0703125 100.078125 C-76.47268448 101.23480464 -74.90338634 102.75903776 -72.875 104.75 C-66.67784368 110.40871487 -59.72885844 114.69204536 -51.1640625 115.19140625 C-46.39776384 114.76983832 -42.74174696 112.78928844 -39.42578125 109.3828125 C-36.6556963 105.81106973 -35 102.62093129 -35 98 C-37.2800905 91.15972849 -42.01471961 87.5765784 -48.1953125 84.3125 C-54.25748589 81.37341444 -60.45509944 78.80283263 -66.71606445 76.32202148 C-73.47523968 73.63068267 -79.68552032 71.14175909 -85 66 C-85.53625 65.49082031 -86.0725 64.98164062 -86.625 64.45703125 C-95.5052183 55.11060149 -98.441467 42.50421651 -98.1875 29.98046875 C-97.38079093 17.15715579 -93.02815129 6.2456971 -84 -3 C-59.50518271 -23.62929057 -23.91470812 -18.97170742 0 0 Z " fill="#FDFDFD" transform="translate(151,40)"/>
<path d="M0 0 C11.22 0 22.44 0 34 0 C34.33 22.11 34.66 44.22 35 67 C38.63 64.69 42.26 62.38 46 60 C55.88708335 55.05645832 68.51193387 54.5783614 79 58 C87.08100653 60.94927246 92.68642606 66.13046548 96.75 73.6875 C101.86303073 85.16466346 102.41657105 96.2305097 102.29296875 108.578125 C102.2873602 110.24248875 102.28309607 111.90685752 102.28010559 113.57122803 C102.26875572 117.91133765 102.23937587 122.25113689 102.20599365 126.59112549 C102.16962396 131.82007943 102.15608457 137.04913826 102.13863373 142.27818298 C102.10973064 150.18566993 102.05217573 158.09247842 102 166 C90.78 166 79.56 166 68 166 C67.98582031 161.42382812 67.97164063 156.84765625 67.95703125 152.1328125 C67.93695002 149.21607046 67.9154102 146.29948263 67.88867188 143.3828125 C67.8464629 138.76361138 67.80936221 134.14480164 67.80444336 129.52539062 C67.8001327 125.79674299 67.77144494 122.06897502 67.72656822 118.34060287 C67.7136807 116.9254661 67.70925422 115.51022356 67.71384621 114.09503555 C67.7389895 103.9838589 66.62556643 96.12562767 59.6875 88.4375 C54.5520929 85.69065434 50.67959808 85.49612058 45.25 87.125 C40.04175968 90.12975403 38.10158402 93.11710055 36.42260742 98.78637695 C34.61656167 105.65636295 34.52364487 112.34778153 34.48828125 119.41796875 C34.47139209 120.76989831 34.45323633 122.12181257 34.43388367 123.47370911 C34.38683608 126.99328831 34.35673687 130.51280552 34.33044434 134.03259277 C34.30040732 137.63969079 34.25411369 141.24658007 34.20898438 144.85351562 C34.12196164 151.90235705 34.06163082 158.9507088 34 166 C22.78 166 11.56 166 0 166 C0 111.22 0 56.44 0 0 Z " fill="#FCFCFC" transform="translate(313,24)"/>
<path d="M0 0 C3.52735358 2.52084542 6.9427719 5.0208969 10.01171875 8.08984375 C10.34171875 4.45984375 10.67171875 0.82984375 11.01171875 -2.91015625 C22.23171875 -2.91015625 33.45171875 -2.91015625 45.01171875 -2.91015625 C45.01171875 32.72984375 45.01171875 68.36984375 45.01171875 105.08984375 C33.79171875 105.08984375 22.57171875 105.08984375 11.01171875 105.08984375 C10.68171875 100.46984375 10.35171875 95.84984375 10.01171875 91.08984375 C9.04234375 92.28609375 8.07296875 93.48234375 7.07421875 94.71484375 C1.10398408 101.51729295 -5.76614751 106.2887721 -14.96484375 107.30908203 C-28.20099501 108.0666108 -38.78956633 106.07080166 -48.98828125 97.08984375 C-49.58253906 96.58839844 -50.17679688 96.08695312 -50.7890625 95.5703125 C-61.42440216 85.87824021 -66.66196441 72.25274932 -67.3671875 58.1328125 C-67.94195065 37.82144918 -64.55372184 22.53489099 -50.34765625 7.3515625 C-37.2402445 -5.21332393 -15.98981169 -10.22093845 0 0 Z M-26.23828125 36.21484375 C-30.94121563 42.07464969 -32.79721229 49.67464251 -31.98828125 57.08984375 C-30.3034244 64.93846858 -26.80844826 70.33576986 -20.30078125 75.02734375 C-14.45791868 76.90146948 -7.86226312 77.44626795 -2.23828125 74.58984375 C4.82796072 69.80523172 9.13474122 63.54781289 10.76171875 55.27734375 C11.51541948 47.6834534 8.94713498 42.14801346 4.6640625 36.07421875 C1.26579965 31.99308985 -2.84316746 29.42524924 -8.22265625 28.8515625 C-16.22024 28.61560894 -20.70618196 30.47935846 -26.23828125 36.21484375 Z " fill="#FDFDFD" transform="translate(235.98828125,84.91015625)"/>
<path d="M0 0 C3.52735358 2.52084542 6.9427719 5.0208969 10.01171875 8.08984375 C10.34171875 4.45984375 10.67171875 0.82984375 11.01171875 -2.91015625 C22.23171875 -2.91015625 33.45171875 -2.91015625 45.01171875 -2.91015625 C45.01171875 32.72984375 45.01171875 68.36984375 45.01171875 105.08984375 C33.79171875 105.08984375 22.57171875 105.08984375 11.01171875 105.08984375 C10.68171875 100.79984375 10.35171875 96.50984375 10.01171875 92.08984375 C8.73296875 93.47171875 7.45421875 94.85359375 6.13671875 96.27734375 C-1.63676985 104.07539314 -9.74324285 107.29671371 -20.61328125 107.33984375 C-33.55785562 107.31940111 -42.5956619 103.26864165 -52.11328125 94.46484375 C-64.67436983 81.22815877 -67.61200481 65.39145709 -67.46118164 47.80493164 C-67.23108802 39.94246422 -66.28515488 33.31205756 -62.98828125 26.08984375 C-62.57578125 25.15527344 -62.16328125 24.22070312 -61.73828125 23.2578125 C-55.48051988 10.54673471 -45.61255048 0.97888083 -32.23828125 -3.78515625 C-21.44910997 -6.63512602 -9.50044186 -6.07283147 0 0 Z M-26.30078125 36.46484375 C-30.87525576 43.58069298 -32.9743591 51.05849377 -31.5859375 59.55078125 C-29.64686123 66.27444218 -25.93367154 70.96642284 -20.30078125 75.02734375 C-14.43131518 76.91000268 -8.60267834 76.94455049 -2.73828125 75.02734375 C4.08418231 70.22060806 8.55234856 65.29216707 10.51171875 56.96484375 C11.79572436 49.26081009 9.64870096 43.15772733 5.32421875 36.77734375 C1.51772186 32.09170507 -2.47939452 29.67652067 -8.44140625 28.6796875 C-16.16565626 28.21765414 -21.01491196 31.03611313 -26.30078125 36.46484375 Z " fill="#FDFDFD" transform="translate(502.98828125,84.91015625)"/>
<path d="M0 0 C0.9075 0.86625 1.815 1.7325 2.75 2.625 C3.08 -0.675 3.41 -3.975 3.75 -7.375 C14.97 -7.375 26.19 -7.375 37.75 -7.375 C37.75 27.935 37.75 63.245 37.75 99.625 C26.53 99.625 15.31 99.625 3.75 99.625 C3.42 95.335 3.09 91.045 2.75 86.625 C2.1209375 87.30046875 1.491875 87.9759375 0.84375 88.671875 C-7.24113252 97.0976863 -14.0165152 101.64824031 -25.79907227 101.91796875 C-38.27138404 102.01488812 -47.16414992 100.29680007 -56.8984375 91.953125 C-68.71825892 80.25110911 -74.39723589 66.0285069 -74.63037109 49.60400391 C-74.59775471 29.99562661 -74.59775471 29.99562661 -70.25 20.625 C-69.59644531 19.19027344 -69.59644531 19.19027344 -68.9296875 17.7265625 C-62.50764126 4.91756317 -52.99923462 -3.69695518 -39.5703125 -8.625 C-25.38905716 -13.20884011 -11.17507115 -9.42826644 0 0 Z M-33.5625 31.25 C-37.88466875 37.57426327 -40.08482303 44.97245558 -39.25 52.625 C-37.54367296 59.75942539 -35.18408476 64.55388134 -29.0625 68.875 C-24.31019508 71.36285193 -19.39744722 72.2740174 -14.109375 71.18359375 C-7.18575501 68.87131608 -2.86059438 65.18923581 0.5625 58.8125 C3.87435681 51.55642537 4.49322276 45.75212576 1.88671875 38.0859375 C-1.04254468 31.74423316 -5.79880339 27.01915808 -12.21484375 24.25 C-20.61420681 21.6705411 -28.07182424 24.5527313 -33.5625 31.25 Z " fill="#FDFDFD" transform="translate(728.25,89.375)"/>
<path d="M0 0 C24.75 0 49.5 0 75 0 C75 43.89 75 87.78 75 133 C70 132 70 132 68.125 130.48828125 C65.14646058 128.4022086 62.60151927 128.46886869 59 128.1875 C46.37187858 126.83980453 34.98314597 120.27079891 26.89453125 110.44140625 C22.20402549 103.93272507 19.67941284 99.17497262 20 91 C21.43410368 90.75045995 22.87260072 90.52607358 24.3125 90.3125 C25.11300781 90.18488281 25.91351563 90.05726563 26.73828125 89.92578125 C29 90 29 90 30.79296875 91.48046875 C31.19128906 91.98191406 31.58960938 92.48335938 32 93 C35.33773709 89.35883227 35.97864902 85.71392758 37 81 C35.02 81 33.04 81 31 81 C31.11509661 79.58249437 31.24253658 78.16598831 31.375 76.75 C31.44460938 75.96109375 31.51421875 75.1721875 31.5859375 74.359375 C32.03350897 71.80906208 32.51354594 70.12684465 34 68 C36.09375 67.20703125 36.09375 67.20703125 38.5 66.8125 C41.85967912 66.24727084 41.85967912 66.24727084 45 65 C37.85940198 55.95371183 29.56586701 49.46749096 17.9375 47.68359375 C12.38525599 47.34742273 8.63444749 49.33227182 4 52 C2.68 52.66 1.36 53.32 0 54 C0 36.18 0 18.36 0 0 Z " fill="#FCFCFC" transform="translate(229,220)"/>
<path d="M0 0 C0 12.21 0 24.42 0 37 C-4.29 37 -8.58 37 -13 37 C-19.11539032 39.17808422 -21.94058491 41.11650944 -25 47 C-26.55203584 51.06284561 -27.25991077 54.48009322 -27.31884766 58.82177734 C-27.33871735 59.94248627 -27.35858704 61.06319519 -27.37905884 62.21786499 C-27.39638565 64.00881088 -27.39638565 64.00881088 -27.4140625 65.8359375 C-27.43342865 67.07042633 -27.4527948 68.30491516 -27.4727478 69.57681274 C-27.53240097 73.50947212 -27.57887263 77.442161 -27.625 81.375 C-27.66212543 84.04560453 -27.70224525 86.71615364 -27.7421875 89.38671875 C-27.83970441 95.92441503 -27.91938854 102.46198602 -28 109 C-39.22 109 -50.44 109 -62 109 C-62 73.36 -62 37.72 -62 1 C-51.11 1 -40.22 1 -29 1 C-28.505 6.94 -28.505 6.94 -28 13 C-26.96875 11.7625 -25.9375 10.525 -24.875 9.25 C-17.15193791 0.41694316 -12.40365349 0 0 0 Z " fill="#FCFCFC" transform="translate(638,81)"/>
<path d="M0 0 C0.09796875 0.99 0.1959375 1.98 0.296875 3 C1.68640769 15.7710833 5.06896999 24.47183169 15.23046875 32.8359375 C17.1279567 34.26660983 19.04030191 35.65620702 21 37 C20.67 37.99 20.34 38.98 20 40 C-6.39567762 50.04911585 -47.15571604 48.48358742 -72.79296875 37.5625 C-76.59723091 35.7090227 -79.74861232 33.69627271 -83 31 C-82.41697544 28.22032733 -81.90428658 26.86798149 -80.1875 24.5 C-78.03901188 21.46270135 -77.00111816 18.31164545 -75.86328125 14.78125 C-75.3360144 13.15799805 -75.3360144 13.15799805 -74.7980957 11.50195312 C-74.53472412 10.67630859 -74.27135254 9.85066406 -74 9 C-72.81970215 8.95512451 -71.6394043 8.91024902 -70.42333984 8.86401367 C-66.0281738 8.6932696 -61.63393475 8.50446456 -57.23974609 8.31030273 C-55.34086134 8.22890346 -53.44176229 8.15234874 -51.54248047 8.08081055 C-48.80625266 7.97689409 -46.0712789 7.85535209 -43.3359375 7.73046875 C-42.49195404 7.70220505 -41.64797058 7.67394135 -40.77841187 7.64482117 C-35.16009642 7.36533693 -30.49868716 6.56915809 -26.38989258 2.34448242 C-24.52263725 0.5382335 -23.32719589 0.57880129 -20.76171875 0.48828125 C-19.53098633 0.43510742 -19.53098633 0.43510742 -18.27539062 0.38085938 C-16.99438477 0.34702148 -16.99438477 0.34702148 -15.6875 0.3125 C-14.84509766 0.27833984 -14.00269531 0.24417969 -13.13476562 0.20898438 C-8.75531006 0.04120226 -4.38303496 -0.03575069 0 0 Z " fill="#FDFDFD" transform="translate(335,467)"/>
<path d="M0 0 C3.77402565 0.58597929 6.56578471 1.66334569 9.87890625 3.546875 C10.79486572 4.06016357 11.7108252 4.57345215 12.65454102 5.10229492 C13.61416748 5.6460376 14.57379395 6.18978027 15.5625 6.75 C29.08819208 14.67560509 29.08819208 14.67560509 44 19 C47.71261227 17.24886475 47.71261227 17.24886475 50 14 C53.3125 13.6875 53.3125 13.6875 57 14 C58.9375 16.5 58.9375 16.5 60 19 C60.5775 18.484375 61.155 17.96875 61.75 17.4375 C64 16 64 16 66.0625 16.125 C68.3935706 17.17774156 69.42980658 17.96045529 71 20 C72.11432036 24.8469891 72.18968191 29.16487078 71 34 C67.55142542 37.61797825 63.62393802 39.23751242 59 41 C57.93265625 41.41765625 56.8653125 41.8353125 55.765625 42.265625 C48.25102348 44.86824309 40.92182835 45.74069302 33 46 C32.90847656 45.09378906 32.81695312 44.18757813 32.72265625 43.25390625 C31.51481403 36.20231282 31.51481403 36.20231282 27.39990234 30.56640625 C22.60255098 27.38057788 17.29321415 25.21708742 12 23 C10.4394274 22.30389866 8.88079183 21.6034369 7.32421875 20.8984375 C3.57113616 19.21102728 -0.20419319 17.58882358 -4 16 C-4.47617251 9.30713088 -4.39973696 5.22468764 0 0 Z " fill="#FCFCFC" transform="translate(233,346)"/>
<path d="M0 0 C5.16054108 4.78467489 9.1878773 9.74881549 9.75 16.9375 C9.67372611 25.0443245 4.04694171 30.20595196 -1 36 C-1.81017578 37.14662109 -1.81017578 37.14662109 -2.63671875 38.31640625 C-4 40 -4 40 -7 41 C-14.30267408 41.73026741 -20.86031275 41.30374194 -27 37 C-32.31849199 31.43517786 -34.15147034 26.89744607 -34.25 19.1875 C-34.28867187 17.38345703 -34.28867187 17.38345703 -34.328125 15.54296875 C-33.79372324 9.77270217 -31.53659786 5.99005259 -27.1875 2.25 C-19.45936173 -4.1151757 -8.76054176 -5.39521169 0 0 Z M-18 14 C-20.26298437 15.86963998 -20.26298437 15.86963998 -20.4375 18.8125 C-20.23212864 22.16417664 -20.23212864 22.16417664 -17.875 24.9375 C-15.17477364 27.28555534 -15.17477364 27.28555534 -11.9375 27.0625 C-8.57703952 25.84701429 -7.0560222 24.92587775 -5 22 C-4.33333333 19 -4.33333333 19 -5 16 C-6.79587685 13.62687702 -8.26863031 12.35388856 -10.9375 11.0625 C-13.96984269 10.97061083 -15.57222838 12.27500437 -18 14 Z " fill="#FBFBFB" transform="translate(383,452)"/>
<path d="M0 0 C7.26 0 14.52 0 22 0 C22 8.91 22 17.82 22 27 C16.97347098 25.74336774 13.35720046 23.0928363 9.1328125 20.23828125 C4.5521306 17.2008763 1.34014973 15.86105947 -4.109375 15.90234375 C-5.24052734 15.90717773 -5.24052734 15.90717773 -6.39453125 15.91210938 C-7.17183594 15.92048828 -7.94914062 15.92886719 -8.75 15.9375 C-9.54277344 15.94201172 -10.33554687 15.94652344 -11.15234375 15.95117188 C-13.10159508 15.96291435 -15.05080738 15.98084854 -17 16 C-18.5625 13.1875 -18.5625 13.1875 -20 10 C-19.67 9.01 -19.34 8.02 -19 7 C-12.73 6.01 -6.46 5.02 0 4 C0 2.68 0 1.36 0 0 Z " fill="#FAFAFA" transform="translate(377,419)"/>
<path d="M0 0 C1.33333333 1.33333333 2.66666667 2.66666667 4 4 C5.36125 5.2684375 5.36125 5.2684375 6.75 6.5625 C9 9 9 9 9 12 C4.55419922 11.01856974 0.1106578 10.02979856 -4.32421875 9 C-13.51920531 6.88271967 -22.62540954 5.14544835 -32 4 C-32 3.67 -32 3.34 -32 3 C-19.24349226 3.21856945 -7.3411999 5.93034428 5 9 C4.45859375 8.27683594 4.45859375 8.27683594 3.90625 7.5390625 C3.4421875 6.90742188 2.978125 6.27578125 2.5 5.625 C2.0359375 4.99851562 1.571875 4.37203125 1.09375 3.7265625 C0 2 0 2 0 0 Z " fill="#EBEBEB" transform="translate(182,390)"/>
<path d="M0 0 C0.66 0.33 1.32 0.66 2 1 C-1.63 4.63 -5.26 8.26 -9 12 C-9.33 11.34 -9.66 10.68 -10 10 C-8.90033225 8.70450101 -7.79508199 7.41373929 -6.6875 6.125 C-6.07261719 5.40570313 -5.45773437 4.68640625 -4.82421875 3.9453125 C-3 2 -3 2 0 0 Z " fill="#F3F3F3" transform="translate(620,84)"/>
</svg>
